<mxfile host="app.diagrams.net" modified="2024-02-17T07:13:13.044Z" agent="Mozilla/5.0 (Windows NT 10.0; Win64; x64) AppleWebKit/537.36 (KHTML, like Gecko) Chrome/121.0.0.0 Safari/537.36" etag="CdbqSJPp5aKCumtiiRbn" version="23.0.1" type="github">
  <diagram name="Page-1" id="ULvkepZrze767ZOHFqph">
    <mxGraphModel dx="3156" dy="613" grid="1" gridSize="10" guides="1" tooltips="1" connect="1" arrows="1" fold="1" page="1" pageScale="1" pageWidth="827" pageHeight="1169" math="0" shadow="0">
      <root>
        <mxCell id="0" />
        <mxCell id="1" parent="0" />
        <mxCell id="i_-3oUF3Cd-55Z9TrqPK-58" value="" style="rounded=0;whiteSpace=wrap;html=1;movable=0;resizable=0;rotatable=0;deletable=0;editable=0;locked=1;connectable=0;" parent="1" vertex="1">
          <mxGeometry x="-880" y="1160" width="867" height="560" as="geometry" />
        </mxCell>
        <mxCell id="i_-3oUF3Cd-55Z9TrqPK-59" value="Academic Supervisor" style="shape=umlActor;verticalLabelPosition=bottom;verticalAlign=top;html=1;outlineConnect=0;" parent="1" vertex="1">
          <mxGeometry x="270" y="1377" width="30" height="60" as="geometry" />
        </mxCell>
        <mxCell id="i_-3oUF3Cd-55Z9TrqPK-35" value="login" style="ellipse;whiteSpace=wrap;html=1;fontSize=16;fontStyle=1;flipV=0;" parent="1" vertex="1">
          <mxGeometry x="-263" y="1240" width="140" height="70" as="geometry" />
        </mxCell>
        <mxCell id="i_-3oUF3Cd-55Z9TrqPK-37" value="Sign up" style="ellipse;whiteSpace=wrap;html=1;fontSize=16;fontStyle=1;flipV=0;" parent="1" vertex="1">
          <mxGeometry x="-263" y="1510" width="140" height="70" as="geometry" />
        </mxCell>
        <mxCell id="i_-3oUF3Cd-55Z9TrqPK-39" value="&lt;span data-lucid-content=&quot;{&amp;quot;t&amp;quot;:&amp;quot;Send Resume to Acadamic Manager&amp;quot;,&amp;quot;m&amp;quot;:[]}&quot; data-lucid-type=&quot;application/vnd.lucid.text&quot; style=&quot;font-size: 16px;&quot;&gt;&lt;span style=&quot;font-size: 16px;&quot;&gt;Send Resume&lt;/span&gt;&lt;/span&gt;" style="ellipse;whiteSpace=wrap;html=1;fontSize=16;fontStyle=1;flipV=0;" parent="1" vertex="1">
          <mxGeometry x="-263" y="1600" width="140" height="70" as="geometry" />
        </mxCell>
        <mxCell id="i_-3oUF3Cd-55Z9TrqPK-40" value="logout" style="ellipse;whiteSpace=wrap;html=1;fontSize=16;fontStyle=1;flipV=0;" parent="1" vertex="1">
          <mxGeometry x="-263" y="1330" width="140" height="70" as="geometry" />
        </mxCell>
        <mxCell id="i_-3oUF3Cd-55Z9TrqPK-64" value="Academic Manager" style="shape=umlActor;verticalLabelPosition=bottom;verticalAlign=top;html=1;outlineConnect=0;" parent="1" vertex="1">
          <mxGeometry x="270" y="1283" width="30" height="60" as="geometry" />
        </mxCell>
        <mxCell id="i_-3oUF3Cd-55Z9TrqPK-65" value="Manager" style="shape=umlActor;verticalLabelPosition=bottom;verticalAlign=top;html=1;outlineConnect=0;" parent="1" vertex="1">
          <mxGeometry x="270" y="1190" width="30" height="60" as="geometry" />
        </mxCell>
        <mxCell id="i_-3oUF3Cd-55Z9TrqPK-67" value="" style="group" parent="1" vertex="1" connectable="0">
          <mxGeometry x="190" y="1470" width="190" height="60" as="geometry" />
        </mxCell>
        <mxCell id="i_-3oUF3Cd-55Z9TrqPK-61" value="Instructor" style="shape=umlActor;verticalLabelPosition=bottom;verticalAlign=top;html=1;outlineConnect=0;" parent="i_-3oUF3Cd-55Z9TrqPK-67" vertex="1">
          <mxGeometry x="80" width="30" height="60" as="geometry" />
        </mxCell>
        <mxCell id="i_-3oUF3Cd-55Z9TrqPK-62" value="Researcher" style="shape=umlActor;verticalLabelPosition=bottom;verticalAlign=top;html=1;outlineConnect=0;" parent="i_-3oUF3Cd-55Z9TrqPK-67" vertex="1">
          <mxGeometry x="160" width="30" height="60" as="geometry" />
        </mxCell>
        <mxCell id="i_-3oUF3Cd-55Z9TrqPK-63" value="Student" style="shape=umlActor;verticalLabelPosition=bottom;verticalAlign=top;html=1;outlineConnect=0;" parent="i_-3oUF3Cd-55Z9TrqPK-67" vertex="1">
          <mxGeometry width="30" height="60" as="geometry" />
        </mxCell>
        <mxCell id="i_-3oUF3Cd-55Z9TrqPK-69" value="Registration System" style="shape=note;strokeWidth=2;fontSize=14;size=20;whiteSpace=wrap;html=1;fillColor=#fff2cc;strokeColor=#d6b656;fontColor=#666600;" parent="1" vertex="1">
          <mxGeometry x="-123" y="1160" width="110.00000000000001" height="80" as="geometry" />
        </mxCell>
        <mxCell id="DrciNlvIPTj5_Hs61lH6-8" style="edgeStyle=none;shape=connector;rounded=0;orthogonalLoop=1;jettySize=auto;html=1;labelBackgroundColor=default;strokeColor=default;align=center;verticalAlign=middle;fontFamily=Helvetica;fontSize=11;fontColor=default;endArrow=none;endFill=0;entryX=0;entryY=0.5;entryDx=0;entryDy=0;" parent="1" source="i_-3oUF3Cd-55Z9TrqPK-72" target="i_-3oUF3Cd-55Z9TrqPK-97" edge="1">
          <mxGeometry relative="1" as="geometry" />
        </mxCell>
        <mxCell id="DrciNlvIPTj5_Hs61lH6-19" style="edgeStyle=orthogonalEdgeStyle;shape=connector;rounded=0;orthogonalLoop=1;jettySize=auto;html=1;exitX=0.5;exitY=0;exitDx=0;exitDy=0;exitPerimeter=0;labelBackgroundColor=default;strokeColor=default;align=center;verticalAlign=middle;fontFamily=Helvetica;fontSize=11;fontColor=default;endArrow=block;endFill=0;" parent="1" source="i_-3oUF3Cd-55Z9TrqPK-72" target="DrciNlvIPTj5_Hs61lH6-2" edge="1">
          <mxGeometry relative="1" as="geometry" />
        </mxCell>
        <mxCell id="DrciNlvIPTj5_Hs61lH6-10" style="edgeStyle=none;shape=connector;rounded=0;orthogonalLoop=1;jettySize=auto;html=1;entryX=0;entryY=0.5;entryDx=0;entryDy=0;labelBackgroundColor=default;strokeColor=default;align=center;verticalAlign=middle;fontFamily=Helvetica;fontSize=11;fontColor=default;endArrow=none;endFill=0;" parent="1" source="i_-3oUF3Cd-55Z9TrqPK-74" target="i_-3oUF3Cd-55Z9TrqPK-39" edge="1">
          <mxGeometry relative="1" as="geometry">
            <Array as="points">
              <mxPoint x="-590" y="1500" />
            </Array>
          </mxGeometry>
        </mxCell>
        <mxCell id="DrciNlvIPTj5_Hs61lH6-17" style="edgeStyle=orthogonalEdgeStyle;shape=connector;rounded=0;orthogonalLoop=1;jettySize=auto;html=1;exitX=0.5;exitY=0;exitDx=0;exitDy=0;exitPerimeter=0;labelBackgroundColor=default;strokeColor=default;align=center;verticalAlign=middle;fontFamily=Helvetica;fontSize=11;fontColor=default;endArrow=block;endFill=0;" parent="1" source="i_-3oUF3Cd-55Z9TrqPK-74" target="DrciNlvIPTj5_Hs61lH6-2" edge="1">
          <mxGeometry relative="1" as="geometry" />
        </mxCell>
        <mxCell id="DrciNlvIPTj5_Hs61lH6-9" style="edgeStyle=none;shape=connector;rounded=0;orthogonalLoop=1;jettySize=auto;html=1;entryX=0;entryY=0.5;entryDx=0;entryDy=0;labelBackgroundColor=default;strokeColor=default;align=center;verticalAlign=middle;fontFamily=Helvetica;fontSize=11;fontColor=default;endArrow=none;endFill=0;" parent="1" source="i_-3oUF3Cd-55Z9TrqPK-76" target="i_-3oUF3Cd-55Z9TrqPK-37" edge="1">
          <mxGeometry relative="1" as="geometry">
            <Array as="points">
              <mxPoint x="-480" y="1500" />
            </Array>
          </mxGeometry>
        </mxCell>
        <mxCell id="DrciNlvIPTj5_Hs61lH6-18" style="edgeStyle=orthogonalEdgeStyle;shape=connector;rounded=0;orthogonalLoop=1;jettySize=auto;html=1;exitX=0.5;exitY=0;exitDx=0;exitDy=0;exitPerimeter=0;labelBackgroundColor=default;strokeColor=default;align=center;verticalAlign=middle;fontFamily=Helvetica;fontSize=11;fontColor=default;endArrow=block;endFill=0;" parent="1" source="i_-3oUF3Cd-55Z9TrqPK-76" target="DrciNlvIPTj5_Hs61lH6-2" edge="1">
          <mxGeometry relative="1" as="geometry" />
        </mxCell>
        <mxCell id="i_-3oUF3Cd-55Z9TrqPK-97" value="Create Account" style="ellipse;whiteSpace=wrap;html=1;fontSize=16;fontStyle=1;flipV=0;" parent="1" vertex="1">
          <mxGeometry x="-263" y="1417" width="140" height="70" as="geometry" />
        </mxCell>
        <mxCell id="DrciNlvIPTj5_Hs61lH6-1" value="User" style="shape=umlActor;verticalLabelPosition=bottom;verticalAlign=top;html=1;outlineConnect=0;" parent="1" vertex="1">
          <mxGeometry x="270" y="1090" width="30" height="60" as="geometry" />
        </mxCell>
        <mxCell id="DrciNlvIPTj5_Hs61lH6-5" style="rounded=0;orthogonalLoop=1;jettySize=auto;html=1;endArrow=none;endFill=0;" parent="1" source="DrciNlvIPTj5_Hs61lH6-2" target="i_-3oUF3Cd-55Z9TrqPK-35" edge="1">
          <mxGeometry relative="1" as="geometry" />
        </mxCell>
        <mxCell id="DrciNlvIPTj5_Hs61lH6-6" style="edgeStyle=none;shape=connector;rounded=0;orthogonalLoop=1;jettySize=auto;html=1;entryX=0;entryY=0.5;entryDx=0;entryDy=0;labelBackgroundColor=default;strokeColor=default;align=center;verticalAlign=middle;fontFamily=Helvetica;fontSize=11;fontColor=default;endArrow=none;endFill=0;" parent="1" source="DrciNlvIPTj5_Hs61lH6-2" target="i_-3oUF3Cd-55Z9TrqPK-40" edge="1">
          <mxGeometry relative="1" as="geometry" />
        </mxCell>
        <mxCell id="DrciNlvIPTj5_Hs61lH6-2" value="User" style="shape=umlActor;verticalLabelPosition=bottom;verticalAlign=top;html=1;outlineConnect=0;" parent="1" vertex="1">
          <mxGeometry x="-573" y="1245" width="30" height="60" as="geometry" />
        </mxCell>
        <mxCell id="DrciNlvIPTj5_Hs61lH6-4" style="edgeStyle=orthogonalEdgeStyle;rounded=0;orthogonalLoop=1;jettySize=auto;html=1;exitX=0.5;exitY=0;exitDx=0;exitDy=0;exitPerimeter=0;endArrow=block;endFill=0;" parent="1" source="i_-3oUF3Cd-55Z9TrqPK-75" target="i_-3oUF3Cd-55Z9TrqPK-74" edge="1">
          <mxGeometry relative="1" as="geometry" />
        </mxCell>
        <mxCell id="DrciNlvIPTj5_Hs61lH6-15" style="edgeStyle=orthogonalEdgeStyle;shape=connector;rounded=0;orthogonalLoop=1;jettySize=auto;html=1;exitX=0.5;exitY=0;exitDx=0;exitDy=0;exitPerimeter=0;labelBackgroundColor=default;strokeColor=default;align=center;verticalAlign=middle;fontFamily=Helvetica;fontSize=11;fontColor=default;endArrow=block;endFill=0;" parent="1" source="i_-3oUF3Cd-55Z9TrqPK-71" target="i_-3oUF3Cd-55Z9TrqPK-74" edge="1">
          <mxGeometry relative="1" as="geometry" />
        </mxCell>
        <mxCell id="DrciNlvIPTj5_Hs61lH6-16" style="edgeStyle=orthogonalEdgeStyle;shape=connector;rounded=0;orthogonalLoop=1;jettySize=auto;html=1;exitX=0.5;exitY=0;exitDx=0;exitDy=0;exitPerimeter=0;labelBackgroundColor=default;strokeColor=default;align=center;verticalAlign=middle;fontFamily=Helvetica;fontSize=11;fontColor=default;endArrow=block;endFill=0;" parent="1" source="i_-3oUF3Cd-55Z9TrqPK-70" target="i_-3oUF3Cd-55Z9TrqPK-74" edge="1">
          <mxGeometry relative="1" as="geometry" />
        </mxCell>
        <mxCell id="DrciNlvIPTj5_Hs61lH6-20" value="" style="group" parent="1" vertex="1" connectable="0">
          <mxGeometry x="-808" y="1590" width="270" height="60" as="geometry" />
        </mxCell>
        <mxCell id="i_-3oUF3Cd-55Z9TrqPK-70" value="Academic Supervisor" style="shape=umlActor;verticalLabelPosition=bottom;verticalAlign=top;html=1;outlineConnect=0;" parent="DrciNlvIPTj5_Hs61lH6-20" vertex="1">
          <mxGeometry x="120" width="30" height="60" as="geometry" />
        </mxCell>
        <mxCell id="i_-3oUF3Cd-55Z9TrqPK-71" value="Academic Manager" style="shape=umlActor;verticalLabelPosition=bottom;verticalAlign=top;html=1;outlineConnect=0;" parent="DrciNlvIPTj5_Hs61lH6-20" vertex="1">
          <mxGeometry x="240" width="30" height="60" as="geometry" />
        </mxCell>
        <mxCell id="i_-3oUF3Cd-55Z9TrqPK-75" value="Researcher" style="shape=umlActor;verticalLabelPosition=bottom;verticalAlign=top;html=1;outlineConnect=0;" parent="DrciNlvIPTj5_Hs61lH6-20" vertex="1">
          <mxGeometry width="30" height="60" as="geometry" />
        </mxCell>
        <mxCell id="i_-3oUF3Cd-55Z9TrqPK-72" value="Manager" style="shape=umlActor;verticalLabelPosition=bottom;verticalAlign=top;html=1;outlineConnect=0;" parent="1" vertex="1">
          <mxGeometry x="-458" y="1417" width="30" height="60" as="geometry" />
        </mxCell>
        <mxCell id="i_-3oUF3Cd-55Z9TrqPK-74" value="Instructor" style="shape=umlActor;verticalLabelPosition=bottom;verticalAlign=top;html=1;outlineConnect=0;" parent="1" vertex="1">
          <mxGeometry x="-688" y="1417" width="30" height="60" as="geometry" />
        </mxCell>
        <mxCell id="i_-3oUF3Cd-55Z9TrqPK-76" value="Student" style="shape=umlActor;verticalLabelPosition=bottom;verticalAlign=top;html=1;outlineConnect=0;" parent="1" vertex="1">
          <mxGeometry x="-573" y="1417" width="30" height="60" as="geometry" />
        </mxCell>
      </root>
    </mxGraphModel>
  </diagram>
</mxfile>
